<?xml version="1.0" encoding="utf-8"?>
<!-- Generator: Adobe Illustrator 24.0.1, SVG Export Plug-In . SVG Version: 6.00 Build 0)  -->
<svg version="1.1" id="Layer_1" xmlns="http://www.w3.org/2000/svg" xmlns:xlink="http://www.w3.org/1999/xlink" x="0px" y="0px"
	 viewBox="0 0 612 792" style="enable-background:new 0 0 612 792;" xml:space="preserve">
<style type="text/css">
	.st0{fill:#FFFFFF;}
	.st1{fill:#FFFFFF;stroke:#FFFFFF;stroke-width:2.7097;stroke-miterlimit:10;}
	.st2{fill:#FFFFFF;stroke:#FFFFFF;stroke-width:3;stroke-miterlimit:10;}
</style>
<g>
	<ellipse cx="313.06" cy="393.91" rx="294.03" ry="280.6"/>
	<g>
		<path class="st0" d="M88.2,537.54v-35.77c0-5.5,1.53-8.86,4.28-11.31l30.57-25.68c-21.71-6.73-34.85-20.79-34.85-50.44v-32.1
			c0-18.34,6.11-32.71,17.73-42.49l39.74-33.32c11.01-9.17,27.51-14.37,48.3-14.37h85.6c9.78,0,14.06,4.28,14.06,14.06v36.38
			c0,5.5-1.53,8.87-4.28,11.31l-27.51,22.93c25.99,5.81,42.8,19.57,42.8,52.58v32.1c0,18.34-6.12,32.71-18.04,42.5l-39.44,33.02
			c-11.31,9.48-27.82,14.68-48.3,14.68h-96.61C92.48,551.61,88.2,547.32,88.2,537.54z M301.59,461.42v-32.1
			c0-34.24-18.95-46.47-47.69-50.75l-45.55-6.11c-5.2-0.61-8.26-4.28-8.26-9.78c0-5.5,3.06-9.17,8.26-9.17h71.23
			c7.64,0,11.01-3.36,11.01-11.01v-36.38c0-7.64-3.36-11-11.01-11h-85.6c-39.74,0-63.28,18.95-63.28,53.81v32.1
			c0,34.24,18.65,46.47,47.38,50.75l45.86,6.42c5.2,0.61,7.95,3.36,7.95,10.39c0,4.89-2.75,8.86-7.95,8.86H141.7
			c-7.64,0-11.01,3.36-11.01,11.01v35.77c0,7.64,3.36,11.01,11.01,11.01h96.61C277.74,515.22,301.59,496.27,301.59,461.42z
			 M263.07,325.68H195.2c-17.12,0-28.13,10.39-28.13,24.76v25.07c0,14.37,6.11,18.65,15.59,20.48l64.51,13.15
			c12.23,2.45,21.1,8.56,21.1,29.96v17.73c0,18.04-13.15,30.88-33.93,30.88h-76.12v-3.06h76.12c18.95,0,30.88-11.62,30.88-27.82
			V439.1c0-19.26-7.34-24.46-18.65-26.9l-64.5-13.15c-10.7-2.14-18.04-6.73-18.04-23.54v-25.07c0-16.2,12.23-27.82,31.18-27.82
			h67.87V325.68z"/>
		<path class="st0" d="M397.87,551.61c-53.81,0-78.26-30.27-78.26-74.6V390.8c0-22.62,6.42-38.52,19.26-49.53l39.44-33.32
			c12.84-10.7,32.41-15.9,59-15.9h76.43c9.78,0,14.06,4.28,14.06,14.06v36.99c0,5.5-1.53,8.87-4.28,11.31l-39.74,33.02
			c-1.83,1.83-5.2,3.06-9.48,3.06h-39.74v44.02c0.61-0.92,1.53-1.83,2.45-2.75l39.44-33.32c2.14-1.83,5.5-2.75,9.78-2.75h47.39
			c9.78,0,14.06,4.28,14.06,14.06v94.47c0,5.5-1.53,8.87-4.28,11.31l-39.74,33.02c-1.83,1.83-5.2,3.06-9.48,3.06H397.87z
			 M544.61,504.22v-94.47c0-7.64-3.36-11.01-11.01-11.01h-47.39c-7.64,0-11,3.36-11,11.01v47.69h-29.66
			c-9.48,0-14.06-4.59-14.06-14.98V369.4c0-10.39,5.81-15.28,18.65-15.28h63.59c7.64,0,11-3.36,11-11.01v-36.99
			c0-7.64-3.36-11-11-11h-76.43c-51.36,0-75.21,19.87-75.21,62.36v95.38c0,42.5,23.85,62.37,75.21,62.37h96.3
			C541.25,515.22,544.61,511.86,544.61,504.22z M395.42,448.27v-85.6c0-29.04,9.78-40.05,48.91-40.05h52.89v3.06h-52.89
			c-36.07,0-45.86,9.78-45.86,36.99v85.6c0,26.6,10.7,36.38,51.97,36.38h57.78v-58.39h3.06v61.45h-60.84
			C405.51,487.71,395.42,476.7,395.42,448.27z"/>
	</g>
	<g>
		<path class="st1" d="M141.38,179.75h15.74c8.85,0,10.41,4.03,10.41,9.04v17.23c0,5.01-1.43,8.85-10.41,8.85h-15.74V179.75z
			 M142.03,180.4v33.82h15.09c8.32,0,9.76-3.45,9.76-8.19v-17.23c0-4.75-1.56-8.39-9.76-8.39H142.03z"/>
		<path class="st1" d="M211.81,214.87h-21.92v-35.12h21.92v0.65h-21.27v16.32h16v0.65h-16v16.84h21.27V214.87z"/>
		<path class="st1" d="M252.33,180.4h-14.44c-3.64,0-5.98,2.21-5.98,5.27V191c0,3.06,1.3,3.97,3.32,4.36l13.72,2.8
			c2.6,0.52,4.49,1.82,4.49,6.37v3.77c0,3.84-2.8,6.57-7.22,6.57h-16.19v-0.65h16.19c4.03,0,6.57-2.47,6.57-5.92v-3.77
			c0-4.1-1.56-5.2-3.97-5.72l-13.72-2.8c-2.28-0.46-3.84-1.43-3.84-5.01v-5.33c0-3.45,2.6-5.92,6.63-5.92h14.44V180.4z"/>
		<path class="st1" d="M272.42,214.87v-0.65h10.08V180.4h-10.08v-0.65h20.68v0.65h-9.95v33.82h9.95v0.65H272.42z"/>
		<path class="st1" d="M313.32,206.48v-18.21c0-6.18,2.08-8.52,10.41-8.52h11.25v0.65h-11.25c-7.67,0-9.76,2.08-9.76,7.87v18.21
			c0,5.66,2.28,7.74,11.06,7.74h12.29V201.8h0.65v13.07h-12.94C315.47,214.87,313.32,212.53,313.32,206.48z"/>
		<path class="st1" d="M385.51,207.19v-27.45h0.65v35.12h-0.65v-6.7l-24.58-27.58c-0.13-0.13-0.19-0.2-0.33-0.2
			c-0.13,0-0.13,0.13-0.13,0.2v34.27h-0.65v-34.4c0-0.52,0.39-0.78,0.78-0.78c0.39,0,0.52,0.13,0.98,0.59L385.51,207.19z"/>
		<path class="st1" d="M428.95,180.4h-14.44c-3.64,0-5.98,2.21-5.98,5.27V191c0,3.06,1.3,3.97,3.32,4.36l13.72,2.8
			c2.6,0.52,4.49,1.82,4.49,6.37v3.77c0,3.84-2.8,6.57-7.22,6.57h-16.19v-0.65h16.19c4.03,0,6.57-2.47,6.57-5.92v-3.77
			c0-4.1-1.56-5.2-3.97-5.72l-13.72-2.8c-2.28-0.46-3.84-1.43-3.84-5.01v-5.33c0-3.45,2.6-5.92,6.63-5.92h14.44V180.4z"/>
	</g>
	<g>
		<path class="st2" d="M391,270.43v-38.88h14.62c7.99,0,9.43,3.46,9.43,7.63v4.61c0,2.88-0.5,5.47-4.61,6.55
			c7.99,0,9.36,3.53,9.36,8.28v4.61c0,4.25-1.37,7.2-9.43,7.2H391z M391.72,232.26v18.07h13.9c7.92,0,8.71-3.1,8.71-6.55v-4.61
			c0-3.89-1.44-6.91-8.71-6.91H391.72z M391.72,251.06v18.65h18.65c7.2,0,8.71-2.52,8.71-6.48v-4.61c0-4.32-1.37-7.56-8.64-7.56
			H391.72z"/>
		<path class="st2" d="M454.58,258.11v12.31h-0.72v-12.31h-0.72c-2.09,0-3.67-0.86-5.26-3.02l-6.98-9.72
			c-1.08-1.44-1.08-3.46-1.08-5.54v-8.28h0.72v8.28c0,2.02,0.07,3.82,1.01,5.26l6.98,9.72c1.3,1.94,2.95,2.59,4.61,2.59h1.94
			c1.8,0,3.24-0.72,4.68-2.59l7.2-9.72c1.01-1.3,1.01-3.24,1.01-5.26v-8.28h0.72v8.28c0,2.09,0.07,4.03-1.08,5.54l-7.2,9.72
			c-1.58,2.09-3.1,3.02-5.33,3.02H454.58z"/>
	</g>
</g>
</svg>
