<?xml version="1.0" encoding="utf-8"?>
<!-- Generator: Adobe Illustrator 24.0.1, SVG Export Plug-In . SVG Version: 6.00 Build 0)  -->
<svg version="1.1" id="Layer_1" xmlns="http://www.w3.org/2000/svg" xmlns:xlink="http://www.w3.org/1999/xlink" x="0px" y="0px"
	 viewBox="0 0 7200 7200" style="enable-background:new 0 0 7200 7200;" xml:space="preserve">
<style type="text/css">
	.st0{fill:#FFFFFF;}
	.st1{fill:#FFFFFF;stroke:#FFFFFF;stroke-width:32.1562;stroke-miterlimit:10;}
	.st2{fill:#FFFFFF;stroke:#FFFFFF;stroke-width:35.5973;stroke-miterlimit:10;}
</style>
<g>
	<ellipse cx="3589.3" cy="3567.2" rx="3488.9" ry="3329.5"/>
	<path class="st0" d="M921.2,5271.5v-424.4c0-65.3,18.2-105.1,50.8-134.2l362.5-304.7c-257.4-79.9-413.3-246.7-413.3-598.9v-380.9
		c0-217.6,72.5-388.1,210.4-504.2l471.5-395.4c130.5-108.8,326.4-170.5,573.1-170.5H3192c116,0,166.8,50.8,166.8,166.8v431.7
		c0,65.3-18.2,105.2-50.8,134.2l-326.4,272.1c308.5,68.9,507.9,232.2,507.9,623.9v380.9c0,217.6-72.6,388.1-213.6,504.3l-468,391.6
		c-134.2,112.5-330.1,174.2-573.1,174.2H1087.9C972,5438.5,921.2,5387.4,921.2,5271.5z M3453.2,4368.3v-381
		c0-406.3-224.9-551.4-565.9-602.2l-540.5-72.5c-61.7-7.2-98-50.8-98-116c0-65.3,36.3-108.8,98-108.8h845.2
		c90.7,0,130.5-39.9,130.5-130.5v-431.7c0-90.7-39.9-130.5-130.5-130.5H2177c-471.5,0-750.9,224.9-750.9,638.5v380.9
		c0,406.3,221.3,551.4,562.2,602.2l544.2,76.2c61.7,7.2,94.9,39.9,94.9,123.3c0,58-32.6,105.1-94.9,105.1H1556
		c-90.7,0-130.5,39.9-130.5,130.5v424.4c0,90.7,39.9,130.5,130.5,130.5h1146.4C3170.2,5006.7,3453.2,4782.3,3453.2,4368.3
		L3453.2,4368.3z M2995.7,2757.6h-804.9c-203.1,0-333.8,123.3-333.8,293.8v297.5c0,170.5,72.5,221.3,185,243l765.5,156
		c145.1,29.1,250.4,101.6,250.4,356v210.4c0,213.6-156,366.4-402.6,366.4h-903.2v-36.3h903.2c224.9,0,366.4-137.9,366.4-330.1
		v-210.9c0-228.5-87.1-290.2-221.3-319.2l-765.8-156c-127-25.4-213.6-79.9-213.6-279.3v-297.5c0-192.2,145.1-330.1,370-330.1h805.3
		v36.3H2995.7z"/>
	<path class="st0" d="M4595.7,5438.5c-638.5,0-928.6-359.2-928.6-885.2V3530.3c0-268.4,76.2-457.1,228.5-587.7l468-395.4
		c152.4-127,384.6-188.7,700.1-188.7h906.9c116,0,166.8,50.8,166.8,166.8v439c0,65.3-18.2,105.2-50.8,134.2l-471.5,391.6
		c-21.7,21.7-61.7,36.3-112.5,36.3H5031v522.1c8.6-11.8,18.4-22.7,29.1-32.6l468-395.4c25.4-21.7,65.3-32.6,116-32.6h562.3
		c116,0,166.8,50.8,166.8,166.8v1121c0,65.3-18.2,105.2-50.8,134.2L5851,5401.5c-21.7,21.7-61.7,36.3-112.5,36.3L4595.7,5438.5z
		 M6336.9,4876.1v-1121c0-90.7-39.9-130.5-130.5-130.5h-562.4c-90.7,0-130.5,39.9-130.5,130.5v565.9h-351.9
		c-112.5,0-166.8-54.5-166.8-178v-866.7c0-123.3,68.9-181.3,221.3-181.3h754.5c90.7,0,130.5-39.9,130.5-130.5v-439
		c0-90.7-39.9-130.5-130.5-130.5h-906.9c-609.4,0-892.4,235.8-892.4,739.9v1131.8c0,504.3,283,740.1,892.4,740.1h1142.7
		C6297,5006.7,6336.9,4966.8,6336.9,4876.1L6336.9,4876.1z M4566.6,4212.7V3197c0-344.1,116-475.2,580.4-475.2h627.6v36.3H5147
		c-428,0-544.2,116-544.2,439v1015.6c0,315.6,127,431.7,617,431.7h685.6v-692.7h36.3v728.6h-722.3
		C4686.3,4680.2,4566.6,4549.6,4566.6,4212.7z"/>
	<path class="st1" d="M1552.2,1026.1H1739c105,0,123.5,47.5,123.5,106.8v204.9c0,59.3-17,105-123.5,105h-186.8V1026.1z
		 M1559.9,1033.8v401.3H1739c98.7,0,115.8-40.9,115.8-97.2v-204.4c0-56.4-18.5-99.6-115.8-99.6h-179.1V1033.8z"/>
	<path class="st1" d="M2387.9,1442.8h-260.1v-416.7h260.1v7.7h-252.4v193.6h189.9v7.7h-189.9v199.8h252.4V1442.8z"/>
	<path class="st1" d="M2868.7,1033.8h-171.3c-43.2,0-71.2,26.2-71.2,62.5v63.2c0,36.3,15.4,47.5,39.4,51.7l162.8,33.2
		c30.9,6.2,53.3,21.6,53.3,75.6v44.9c0,45.6-33.2,78-85.7,78h-191.9v-7.7h192.1c47.5,0,78-29.3,78-70.2v-44.9
		c0-48.6-18.5-61.7-47.5-67.9l-162.8-33.2c-27.1-5.5-45.6-17-45.6-59.3v-63.4c0-40.9,30.9-70.2,78.7-70.2h171.7
		C2868.7,1026.1,2868.7,1033.8,2868.7,1033.8z"/>
	<path class="st1" d="M3107.1,1442.8v-7.7h119.6v-401.3h-119.6v-7.7h245.4v7.7h-118.1v401.3h118.1v7.7H3107.1z"/>
	<path class="st1" d="M3592.4,1343.2v-215.6c0-73.3,24.7-101.1,123.5-101.1H3850v7.7H3716c-91,0-115.8,24.7-115.8,93.4v215.6
		c0,67.2,27.1,91.8,131.2,91.8h145.8v-147.4h7.7v155.1h-153.5C3617.9,1442.8,3592.4,1415,3592.4,1343.2z"/>
	<path class="st1" d="M4449,1351.6v-325.7h7.7v416.7h-7.7v-79.5l-291.7-327.3c-1.5-1.5-2.3-2.4-3.9-2.4s-1.5,1.5-1.5,2.4v406.6h-7.7
		v-408.2c-0.2-4.9,3.6-9.1,8.5-9.3c0.2,0,0.5,0,0.7,0c4.6,0,6.2,1.5,11.9,7L4449,1351.6z"/>
	<path class="st1" d="M4964.5,1033.8h-171.3c-43.2,0-71.2,26.2-71.2,62.5v63.2c0,36.3,15.4,47.5,39.4,51.7l162.8,33.2
		c30.9,6.2,53.3,21.6,53.3,75.6v44.9c0,45.6-33.2,78-85.7,78h-191.9v-7.7H4892c47.5,0,78-29.3,78-70.2v-44.9
		c0-48.6-18.5-61.7-47.5-67.9l-162.8-33.2c-27.1-5.5-45.6-17-45.6-59.3v-63.4c0-40.9,30.9-70.2,78.7-70.2h171.3L4964.5,1033.8z"/>
	<path class="st2" d="M4514.5,2102v-461.3H4688c94.9,0,111.9,41.1,111.9,90.5v54.7c0,34.2-5.9,64.9-54.7,77.7
		c94.9,0,111.1,41.9,111.1,98.2v54.7c0,50.4-16.3,85.4-111.9,85.4H4514.5z M4523.1,1649.1v214.2H4688c94,0,103.4-36.8,103.4-77.7
		v-54.7c0-46.2-17.1-82-103.4-82L4523.1,1649.1z M4523.1,1872.2v221.3h221.3c85.4,0,103.4-29.9,103.4-76.9v-54.7
		c0-51.3-16.3-89.7-102.5-89.7H4523.1z"/>
	<path class="st2" d="M5268.6,1955.9v146.1h-8.5v-146.1h-8.5c-24.8,0-43.5-10.2-62.4-35.6l-83.1-115.3
		c-12.8-17.1-12.8-41.1-12.8-65.7v-98.2h8.5v98.2c0,23.7,0.8,45.3,11.9,62.4l83.1,115.3c11.5,19.2,32.3,30.9,54.7,30.7h23
		c22.5-0.1,43.5-11.7,55.5-30.7l85.4-115.3c11.9-15.4,11.9-38.4,11.9-62.4v-98.2h8.5v98.2c0,24.8,0.8,47.5-12.8,65.7l-85.4,115.3
		c-18.7,24.8-36.8,35.6-63.2,35.6H5268.6z"/>
</g>
</svg>
